# xmcd CD database file
#
# Track frame offsets:
#	150
#	16685
#	36941
#	56370
#	70167
#	84577
#	102208
#	115786
#	132821
#	150029
#	166169
#	182694
#	198240
#	213090
#	230267
#	247526
#	262008
#	276486
#	291840
#	311874
#
# Disc length: 4413 seconds
#
# Revision: 0
# Processed by: cddbd v1.5.2PL0 Copyright (c) Steve Scherf et al.
# Submitted via: CDex 1.79
#
DISCID=02113b14
DTITLE=Frizzell and Friends - This Is Our Time
DYEAR=2008
DGENRE=Country
TTITLE0=David Frizzel and Friends - This Is Our Time
TTITLE1=David Frizzell and Crystal Gayle - Wedding Dress For Sale
TTITLE2=David Frizzell and Johnny Rodriguez - Warm Spanish Wine
TTITLE3=David Frizzell and Merle Haggard - If You`ve Got The Money, I`ve Got The Time
TTITLE4=David Frizzell and Gene Watson - Long Black Veil
TTITLE5=David Frizzell - Dream Of Angels
TTITLE6=David Frizzell and Joe Stampley - Music (Where Did It Come From?)
TTITLE7=David Frizzell and Jeannie Seely - Nobody`s Darlin` But Mine
TTITLE8=Jimmy Fortune - How Long`s Love Gonna Put Up With That?
TTITLE9=David Frizzell and T. Graham Brown - Got To Get To Louisiana
TTITLE10=David Frizzell feat. Helen Cornelius and Jimmy Fortune - Someday
TTITLE11=David Frizzell and Lacy J. Dalton - Something `Bout You
TTITLE12=David Frizzell and Bobby Bare - Cowboy Hat
TTITLE13=David Frizzell and Helen Cornelius - Could It Be We Fell In Love Tonight
TTITLE14=David Frizzell - No Regrets
TTITLE15=David Frizzell and Johnny Lee - You Can`t Love Her
TTITLE16=David Frizzell and Allen Frizzell feat. Tess Frizzell - Three Minutes
TTITLE17=David Frizzell and Amy Clawson - Why Wasn`t It Me
TTITLE18=David Frizzell and Jimmy Fortune - Ordinary Joe
TTITLE19=David Frizzell and John Cowan - Reckless Wind
EXTD=YEAR: 2008
EXTT0=
EXTT1=
EXTT2=
EXTT3=
EXTT4=
EXTT5=
EXTT6=
EXTT7=
EXTT8=
EXTT9=
EXTT10=
EXTT11=
EXTT12=
EXTT13=
EXTT14=
EXTT15=
EXTT16=
EXTT17=
EXTT18=
EXTT19=
PLAYORDER=
